<svg width="56" height="56" viewBox="0 0 56 56" fill="none" xmlns="http://www.w3.org/2000/svg">
<rect width="56" height="56" rx="10" fill="url(#paint0_linear_739_31270)"/>
<g clip-path="url(#clip0_739_31270)" filter="url(#filter0_d_739_31270)">
<path fill-rule="evenodd" clip-rule="evenodd" d="M18.1105 13H39.2092C39.8225 13 40.3197 13.4972 40.3197 14.1105V39.872C40.3197 40.9766 39.4243 41.872 38.3197 41.872H27.6907C24.9928 42.3477 22.541 43.7532 20.7658 45.8512L19.5577 47.2789V41.872H18.1105C17.4972 41.872 17 41.3748 17 40.7616V14.1105C17 13.4972 17.4972 13 18.1105 13Z" fill="#0EA4E6"/>
<path d="M19.4102 21.3531V15.337H21.9038V16.1944H20.3557V21.3531H19.4102Z" fill="#EDF7FF"/>
<path d="M22.4609 16.7821C22.4609 15.8023 22.9508 15.2683 23.8964 15.2683C24.8419 15.2683 25.3318 15.817 25.3318 16.7821V19.9078C25.3318 20.8876 24.8419 21.4216 23.8964 21.4216C22.9508 21.4216 22.4609 20.8729 22.4609 19.9078V16.7821ZM23.4065 19.9665C23.4065 20.3977 23.5926 20.5593 23.8964 20.5593C24.2001 20.5593 24.3863 20.3977 24.3863 19.9665V16.7184C24.3863 16.2922 24.1952 16.1257 23.8964 16.1257C23.5975 16.1257 23.4065 16.2922 23.4065 16.7184V19.9665Z" fill="#EDF7FF"/>
<path d="M28.7432 16.8215V17.5955C28.7432 18.5753 28.2827 19.0652 27.3372 19.0652H26.8864V21.3286H25.9409V15.337H27.3372C28.2827 15.337 28.7432 15.8612 28.7432 16.8215ZM26.8864 16.1944V18.2324H27.3372C27.636 18.2324 27.7977 18.0952 27.7977 17.6641V16.7627C27.7977 16.3316 27.636 16.1944 27.3372 16.1944H26.8864Z" fill="#EDF7FF"/>
<path d="M29.1055 16.7821C29.1055 15.8023 29.5954 15.2683 30.5409 15.2683C31.4864 15.2683 31.991 15.817 31.991 16.7821V19.9078C31.991 20.8876 31.5011 21.4216 30.5556 21.4216C29.6101 21.4216 29.1202 20.8729 29.1202 19.9078L29.1055 16.7821ZM30.0314 19.9665C30.0314 20.3977 30.2225 20.5593 30.5213 20.5593C30.8202 20.5593 31.0112 20.3977 31.0112 19.9665V16.7184C31.0112 16.2922 30.8397 16.1257 30.5213 16.1257C30.2029 16.1257 30.0314 16.2922 30.0314 16.7184V19.9665Z" fill="#EDF7FF"/>
<path d="M35.3228 22.1613V21.353H33.2994V22.1613H32.3833V20.5348H32.7507C32.9135 20.3069 32.9946 20.0307 32.981 19.751L33.1966 15.3418H35.847V20.5348H36.2585V22.1858L35.3228 22.1613ZM33.9118 19.7118C33.9281 19.8603 33.9125 20.0105 33.8661 20.1524C33.8196 20.2944 33.7433 20.4248 33.6424 20.5348H34.8818V16.1942H34.0833L33.9118 19.7118Z" fill="#EDF7FF"/>
<path d="M20.3704 29.6963H19.3906V23.6802H20.2333V27.4868L20.5762 26.164L21.3601 23.6802H22.3987V29.6963H21.5511V25.4585L21.1641 26.9283L20.3704 29.6963Z" fill="#EDF7FF"/>
<path d="M25.8037 30.5048V29.6964H23.7853V30.5048H22.8643V28.8636H23.2366C23.3994 28.6375 23.4805 28.3628 23.4668 28.0846L23.6824 23.6754H26.3279V28.8636H26.7394V30.5146L25.8037 30.5048ZM24.3977 28.0552C24.3683 28.5108 24.285 28.7117 24.1282 28.8538H25.3677V24.5426H24.5691L24.3977 28.0552Z" fill="#EDF7FF"/>
<path d="M28.2151 26.2179H29.5084V27.0753H28.2151V28.8634H29.8465V29.6963H27.2695V23.6802H29.8465V24.5424H28.2151V26.2179Z" fill="#EDF7FF"/>
<path d="M31.3983 29.6967H30.4185V23.6806H31.2611V27.4872L31.604 26.1644L32.3781 23.6806H33.4167V29.6967H32.579V25.459L32.1919 26.9287L31.3983 29.6967ZM32.3781 22.348C32.3487 22.6665 32.2066 22.74 31.947 22.74C31.6873 22.74 31.5697 22.6665 31.5452 22.348H30.9574C30.9472 22.478 30.9659 22.6086 31.012 22.7305C31.0581 22.8524 31.1305 22.9627 31.224 23.0534C31.3176 23.1442 31.43 23.2132 31.5532 23.2555C31.6765 23.2979 31.8076 23.3125 31.9372 23.2985C32.0713 23.3216 32.2089 23.3135 32.3394 23.2749C32.4699 23.2363 32.5898 23.1682 32.6897 23.0759C32.7897 22.9835 32.867 22.8694 32.9158 22.7423C32.9645 22.6152 32.9834 22.4787 32.9709 22.3431L32.3781 22.348Z" fill="#EDF7FF"/>
</g>
<defs>
<filter id="filter0_d_739_31270" x="12.5582" y="10.7791" width="36.6454" height="47.6046" filterUnits="userSpaceOnUse" color-interpolation-filters="sRGB">
<feFlood flood-opacity="0" result="BackgroundImageFix"/>
<feColorMatrix in="SourceAlpha" type="matrix" values="0 0 0 0 0 0 0 0 0 0 0 0 0 0 0 0 0 0 127 0" result="hardAlpha"/>
<feOffset dx="2.22092" dy="4.44185"/>
<feGaussianBlur stdDeviation="3.33139"/>
<feColorMatrix type="matrix" values="0 0 0 0 0.24434 0 0 0 0 0.693296 0 0 0 0 0.945833 0 0 0 0.3 0"/>
<feBlend mode="normal" in2="BackgroundImageFix" result="effect1_dropShadow_739_31270"/>
<feBlend mode="normal" in="SourceGraphic" in2="effect1_dropShadow_739_31270" result="shape"/>
</filter>
<linearGradient id="paint0_linear_739_31270" x1="60.5" y1="53" x2="-12.5" y2="7" gradientUnits="userSpaceOnUse">
<stop stop-color="#D5EDFF"/>
<stop offset="1" stop-color="#E0F9FF"/>
</linearGradient>
<clipPath id="clip0_739_31270">
<rect width="23.3197" height="34.279" fill="white" transform="translate(17 13)"/>
</clipPath>
</defs>
</svg>
